<?xml version="1.0" encoding="utf-8"?>
<!-- Generator: Adobe Illustrator 27.5.0, SVG Export Plug-In . SVG Version: 6.00 Build 0)  -->
<svg version="1.1" xmlns="http://www.w3.org/2000/svg" xmlns:xlink="http://www.w3.org/1999/xlink" x="0px" y="0px"
	 viewBox="0 0 800 800" style="enable-background:new 0 0 800 800;" xml:space="preserve">
<g id="_x39_">
	<rect x="0.013" y="0.013" style="fill-rule:evenodd;clip-rule:evenodd;fill:#FFFFFF;" width="799.975" height="799.975"/>
	<path style="fill-rule:evenodd;clip-rule:evenodd;fill:#43BDA7;" d="M550.319,208.828l-148.616-52.416
		c-1.094-0.372-2.287-0.372-3.382,0l-148.642,52.416c-2.014,0.721-3.381,2.636-3.381,4.774c0,53.061,14.048,114.377,38.515,168.235
		c19.843,43.687,55.548,101.996,112.862,131.51c0.746,0.372,1.541,0.571,2.337,0.571c0.795,0,1.591-0.199,2.313-0.571
		c57.338-29.515,93.019-87.823,112.886-131.51c24.467-53.857,38.49-115.174,38.49-168.235
		C553.701,211.463,552.358,209.549,550.319,208.828L550.319,208.828z"/>
	<path style="fill-rule:evenodd;clip-rule:evenodd;fill:#FFFFFF;" d="M532.84,224.567l-132.828-46.821L267.16,224.567
		c1.839,50.152,15.938,103.561,36.477,148.716c20.663,45.527,52.241,92.074,96.375,117.784
		c44.11-25.71,75.689-72.257,96.376-117.784C516.901,328.128,531.023,274.719,532.84,224.567L532.84,224.567z"/>
	<path style="fill-rule:evenodd;clip-rule:evenodd;fill:#FFFFFF;" d="M392.105,386.039c0-13.726-10.767-24.716-24.044-25.86v-11.214
		l-5.496,2.735v8.702c-12.805,1.617-22.876,12.382-22.876,25.636v24.044c0,1.591,1.368,2.76,2.735,2.76h9.15
		c1.393,0,2.76-1.169,2.76-2.76c0-1.617-1.367-2.76-2.76-2.76h-6.391v-21.284c0-11.439,9.374-20.588,20.813-20.588
		c11.462,0,20.613,9.149,20.613,20.588v21.284h-5.719c-1.617,0-2.76,1.143-2.76,2.76c0,1.591,1.144,2.76,2.76,2.76h8.454
		c1.617,0,2.76-1.169,2.76-2.76V386.039z"/>
	<path style="fill-rule:evenodd;clip-rule:evenodd;fill:#FFFFFF;" d="M435.369,350.332v21.061v0.248
		c-4.574,0.896-8.03,5.024-8.03,9.822c0,5.744,4.6,10.294,10.07,10.294c5.744,0,10.095-4.55,10.095-10.294
		c0-4.352-2.761-8.007-6.888-9.374c0.249-0.225,0.249-0.448,0.249-0.696v-18.549L435.369,350.332z M432.609,381.464
		c0-2.512,2.064-4.575,4.8-4.575c2.536,0,4.823,2.063,4.823,4.575c0,2.76-2.287,4.799-4.823,4.799
		C434.674,386.263,432.609,384.224,432.609,381.464L432.609,381.464z"/>
	<path style="fill-rule:evenodd;clip-rule:evenodd;fill:#43BDA7;" d="M316.343,372.861c18.226,39.361,45.726,79.268,83.869,101.473
		c38.042-22.155,65.494-61.914,83.72-101.175c-9.424-8.28-23.797-11.363-43.066-20.315v18.549c0,0.248,0,0.472-0.249,0.696
		c4.127,1.367,6.888,5.022,6.888,9.374c0,5.744-4.351,10.294-10.095,10.294c-5.471,0-10.07-4.55-10.07-10.294
		c0-4.798,3.456-8.927,8.03-9.822c0,0,0,0,0-0.248v-21.061c-2.983-1.591-6.19-3.207-9.398-5.022v-12.606l0,0
		c7.783-5.023,10.542-16.013,13.054-25.86c1.145-0.224,2.065-2.064,2.065-4.351v-0.672c0.921-1.144,1.814-2.983,2.511-5.967
		c0.92-2.96,4.352-12.109,1.144-14.422c-1.367-0.672-2.511-0.447-3.207,1.168c0,0,4.128-22.676,0.92-32.298
		c-7.087-24.939-65.692-31.803-65.692-16.237c-24.94,7.087-20.365,30.658-16.933,48.76c0,0-1.616-2.288-3.903,0
		c-2.735,2.959,0.249,9.821,1.144,13.029c0.696,2.76,1.616,4.351,2.288,5.719c0,0.248,0,0.472,0,0.92
		c0,2.287,0.919,4.351,2.287,4.351l0,0c2.983,10.991,4.824,21.757,13.054,27.476v10.99c-2.063,1.367-4.352,2.512-6.638,3.655v11.214
		c13.277,1.144,24.044,12.134,24.044,25.86v24.044c0,1.591-1.143,2.76-2.76,2.76h-8.454c-1.617,0-2.76-1.169-2.76-2.76
		c0-1.617,1.144-2.76,2.76-2.76h5.719v-21.284c0-11.439-9.15-20.588-20.613-20.588c-11.439,0-20.813,9.149-20.813,20.588v21.284
		h6.391c1.393,0,2.76,1.143,2.76,2.76c0,1.591-1.367,2.76-2.76,2.76h-9.15c-1.367,0-2.735-1.169-2.735-2.76v-24.044
		c0-13.254,10.071-24.02,22.876-25.636v-8.702C341.604,361.646,326.164,363.959,316.343,372.861L316.343,372.861z M437.409,386.263
		c-2.735,0-4.8-2.039-4.8-4.799c0-2.512,2.064-4.575,4.8-4.575c2.536,0,4.823,2.063,4.823,4.575
		C442.232,384.224,439.945,386.263,437.409,386.263L437.409,386.263z"/>
	<path style="fill:#333333;" d="M222.229,590.949c0,0.623,0,1.17-0.049,1.592c-0.025,0.423-0.1,0.82-0.174,1.118
		c-0.074,0.324-0.175,0.572-0.299,0.821c-0.124,0.197-0.323,0.447-0.596,0.746c-0.274,0.271-0.796,0.646-1.567,1.094
		c-0.795,0.423-1.74,0.845-2.884,1.268c-1.119,0.398-2.413,0.721-3.854,0.996c-1.443,0.273-3.009,0.397-4.7,0.397
		c-3.307,0-6.266-0.498-8.927-1.517c-2.661-1.02-4.923-2.536-6.763-4.551c-1.864-2.014-3.283-4.55-4.277-7.583
		c-0.995-3.009-1.491-6.54-1.491-10.543c0-4.103,0.546-7.732,1.641-10.891c1.095-3.184,2.611-5.844,4.575-8.006
		c1.939-2.164,4.302-3.779,7.037-4.899c2.735-1.118,5.769-1.69,9.051-1.69c1.342,0,2.635,0.125,3.879,0.349
		c1.243,0.224,2.386,0.497,3.431,0.87c1.045,0.372,1.99,0.771,2.835,1.243c0.845,0.497,1.442,0.895,1.765,1.218
		c0.349,0.35,0.572,0.623,0.696,0.846c0.124,0.225,0.224,0.522,0.298,0.845c0.076,0.374,0.126,0.771,0.175,1.244
		c0.025,0.472,0.05,1.044,0.05,1.741c0,0.72-0.025,1.367-0.075,1.89c-0.049,0.523-0.15,0.944-0.249,1.268
		c-0.124,0.298-0.298,0.547-0.447,0.696c-0.174,0.149-0.373,0.224-0.597,0.224c-0.372,0-0.845-0.224-1.417-0.646
		c-0.572-0.447-1.293-0.921-2.214-1.442c-0.895-0.547-1.964-1.019-3.232-1.467c-1.243-0.423-2.735-0.648-4.476-0.648
		c-1.89,0-3.605,0.399-5.097,1.172c-1.492,0.794-2.76,1.889-3.83,3.355c-1.044,1.442-1.84,3.207-2.387,5.272
		c-0.547,2.037-0.821,4.352-0.821,6.936c0,2.81,0.298,5.271,0.871,7.335c0.597,2.065,1.417,3.779,2.486,5.098
		c1.069,1.343,2.386,2.336,3.903,3.009c1.517,0.646,3.232,0.97,5.147,0.97c1.716,0,3.233-0.199,4.501-0.597
		c1.244-0.423,2.338-0.87,3.233-1.343c0.92-0.498,1.64-0.945,2.237-1.342c0.572-0.398,1.02-0.598,1.368-0.598
		c0.224,0,0.422,0.049,0.571,0.149c0.149,0.099,0.273,0.298,0.374,0.597c0.099,0.299,0.174,0.721,0.224,1.243
		C222.204,589.333,222.229,590.054,222.229,590.949L222.229,590.949z M257.04,594.131c0,0.747-0.025,1.367-0.075,1.891
		c-0.074,0.497-0.174,0.92-0.298,1.243c-0.125,0.349-0.273,0.597-0.448,0.746c-0.199,0.15-0.423,0.224-0.671,0.224h-22.055
		c-0.796,0-1.492-0.248-2.039-0.721c-0.572-0.497-0.846-1.269-0.846-2.362v-43.737c0-0.248,0.075-0.473,0.248-0.696
		c0.149-0.174,0.423-0.348,0.796-0.472c0.373-0.125,0.87-0.225,1.492-0.299c0.646-0.074,1.442-0.1,2.362-0.1
		c0.97,0,1.765,0.025,2.412,0.1c0.596,0.074,1.094,0.174,1.466,0.299c0.373,0.124,0.647,0.298,0.795,0.472
		c0.174,0.224,0.249,0.448,0.249,0.696v38.74h15.118c0.248,0,0.472,0.051,0.671,0.198c0.175,0.15,0.324,0.348,0.448,0.671
		c0.149,0.299,0.224,0.722,0.298,1.244C257.015,592.764,257.04,593.386,257.04,594.131L257.04,594.131z M273.998,596.893
		c0,0.248-0.075,0.472-0.249,0.67c-0.174,0.201-0.422,0.349-0.794,0.498c-0.374,0.1-0.871,0.199-1.493,0.273
		c-0.622,0.074-1.418,0.124-2.387,0.124c-0.945,0-1.716-0.05-2.362-0.124c-0.647-0.074-1.144-0.174-1.517-0.273
		c-0.372-0.149-0.622-0.297-0.796-0.498c-0.174-0.198-0.249-0.422-0.249-0.67v-45.478c0-0.248,0.075-0.473,0.249-0.696
		c0.174-0.174,0.423-0.348,0.82-0.472c0.399-0.125,0.896-0.225,1.518-0.299c0.621-0.074,1.392-0.1,2.337-0.1
		c0.97,0,1.765,0.025,2.387,0.1c0.622,0.074,1.119,0.174,1.493,0.299c0.372,0.124,0.621,0.298,0.794,0.472
		c0.175,0.224,0.249,0.448,0.249,0.696V596.893z M325.517,594.804c0,0.571-0.099,1.069-0.297,1.541
		c-0.199,0.448-0.474,0.796-0.796,1.119c-0.348,0.273-0.746,0.497-1.193,0.646c-0.473,0.124-0.92,0.198-1.393,0.198h-4.177
		c-0.87,0-1.641-0.099-2.263-0.248c-0.621-0.199-1.218-0.498-1.74-0.97c-0.547-0.448-1.045-1.069-1.542-1.864
		c-0.498-0.772-1.069-1.791-1.691-3.034l-11.936-22.503c-0.721-1.367-1.418-2.81-2.138-4.351c-0.721-1.542-1.343-3.06-1.915-4.525
		h-0.074c0.099,1.79,0.174,3.58,0.224,5.346c0.049,1.766,0.074,3.605,0.074,5.495v25.213c0,0.224-0.074,0.447-0.199,0.671
		c-0.149,0.175-0.398,0.349-0.721,0.499c-0.323,0.123-0.796,0.223-1.368,0.297c-0.571,0.074-1.293,0.124-2.188,0.124
		c-0.871,0-1.592-0.05-2.163-0.124c-0.572-0.074-1.019-0.174-1.343-0.297c-0.323-0.15-0.546-0.324-0.67-0.499
		c-0.125-0.224-0.2-0.447-0.2-0.671v-43.29c0-1.168,0.349-2.038,1.044-2.636c0.672-0.571,1.493-0.87,2.512-0.87h5.247
		c0.945,0,1.741,0.075,2.387,0.249c0.647,0.149,1.219,0.423,1.716,0.795c0.522,0.374,0.995,0.896,1.442,1.542
		c0.447,0.647,0.895,1.468,1.367,2.438l9.374,17.63c0.547,1.068,1.07,2.112,1.592,3.132c0.547,1.044,1.069,2.064,1.542,3.083
		c0.496,1.045,0.994,2.064,1.441,3.034c0.497,1.02,0.945,2.014,1.393,3.008h0.049c-0.074-1.74-0.149-3.58-0.174-5.445
		c-0.049-1.89-0.074-3.706-0.074-5.421v-22.602c0-0.248,0.099-0.473,0.248-0.672c0.125-0.198,0.397-0.372,0.722-0.521
		c0.373-0.149,0.82-0.249,1.392-0.323c0.572-0.05,1.318-0.075,2.189-0.075c0.869,0,1.566,0.025,2.139,0.075
		c0.571,0.074,1.019,0.174,1.317,0.323c0.323,0.149,0.548,0.323,0.646,0.521c0.125,0.199,0.199,0.424,0.199,0.672V594.804z
		 M347.174,596.893c0,0.248-0.075,0.472-0.249,0.67c-0.149,0.201-0.422,0.349-0.796,0.498c-0.373,0.1-0.87,0.199-1.491,0.273
		c-0.622,0.074-1.418,0.124-2.388,0.124c-0.944,0-1.715-0.05-2.361-0.124c-0.622-0.074-1.145-0.174-1.517-0.273
		c-0.348-0.149-0.622-0.297-0.796-0.498c-0.149-0.198-0.224-0.422-0.224-0.67v-45.478c0-0.248,0.075-0.473,0.224-0.696
		c0.174-0.174,0.448-0.348,0.846-0.472c0.372-0.125,0.869-0.225,1.492-0.299c0.621-0.074,1.392-0.1,2.336-0.1
		c0.97,0,1.766,0.025,2.388,0.1c0.621,0.074,1.118,0.174,1.491,0.299c0.374,0.124,0.647,0.298,0.796,0.472
		c0.174,0.224,0.249,0.448,0.249,0.696V596.893z M392.304,590.949c0,0.623-0.025,1.17-0.05,1.592
		c-0.05,0.423-0.099,0.82-0.174,1.118c-0.075,0.324-0.174,0.572-0.298,0.821c-0.125,0.197-0.324,0.447-0.597,0.746
		c-0.273,0.271-0.796,0.646-1.567,1.094c-0.796,0.423-1.741,0.845-2.884,1.268c-1.119,0.398-2.412,0.721-3.854,0.996
		c-1.442,0.273-3.033,0.397-4.724,0.397c-3.283,0-6.241-0.498-8.902-1.517c-2.661-1.02-4.923-2.536-6.763-4.551
		c-1.89-2.014-3.307-4.55-4.302-7.583c-0.97-3.009-1.466-6.54-1.466-10.543c0-4.103,0.546-7.732,1.64-10.891
		c1.07-3.184,2.611-5.844,4.55-8.006c1.964-2.164,4.327-3.779,7.062-4.899c2.735-1.118,5.744-1.69,9.051-1.69
		c1.343,0,2.611,0.125,3.854,0.349c1.243,0.224,2.387,0.497,3.456,0.87c1.044,0.372,1.989,0.771,2.835,1.243
		c0.846,0.497,1.442,0.895,1.766,1.218c0.323,0.35,0.572,0.623,0.696,0.846c0.124,0.225,0.224,0.522,0.274,0.845
		c0.099,0.374,0.15,0.771,0.199,1.244c0.025,0.472,0.05,1.044,0.05,1.741c0,0.72-0.025,1.367-0.075,1.89s-0.149,0.944-0.274,1.268
		c-0.124,0.298-0.273,0.547-0.422,0.696c-0.199,0.149-0.397,0.224-0.597,0.224c-0.372,0-0.846-0.224-1.417-0.646
		c-0.572-0.447-1.318-0.921-2.213-1.442c-0.894-0.547-1.989-1.019-3.232-1.467c-1.243-0.423-2.735-0.648-4.476-0.648
		c-1.915,0-3.605,0.399-5.097,1.172c-1.517,0.794-2.784,1.889-3.829,3.355c-1.07,1.442-1.865,3.207-2.412,5.272
		c-0.547,2.037-0.796,4.352-0.796,6.936c0,2.81,0.273,5.271,0.871,7.335c0.572,2.065,1.418,3.779,2.486,5.098
		c1.069,1.343,2.362,2.336,3.904,3.009c1.517,0.646,3.232,0.97,5.147,0.97c1.716,0,3.208-0.199,4.476-0.597
		c1.269-0.423,2.337-0.87,3.258-1.343c0.895-0.498,1.641-0.945,2.237-1.342c0.572-0.398,1.019-0.598,1.343-0.598
		c0.249,0,0.447,0.049,0.597,0.149c0.149,0.099,0.274,0.298,0.373,0.597c0.1,0.299,0.174,0.721,0.224,1.243
		C392.279,589.333,392.304,590.054,392.304,590.949L392.304,590.949z M457.599,594.804c0,0.571-0.1,1.069-0.298,1.541
		c-0.199,0.448-0.473,0.796-0.82,1.119c-0.323,0.273-0.722,0.497-1.169,0.646c-0.473,0.124-0.92,0.198-1.393,0.198h-4.177
		c-0.896,0-1.642-0.099-2.264-0.248c-0.621-0.199-1.218-0.498-1.739-0.97c-0.548-0.448-1.07-1.069-1.567-1.864
		c-0.497-0.772-1.044-1.791-1.666-3.034l-11.96-22.503c-0.696-1.367-1.392-2.81-2.113-4.351c-0.721-1.542-1.368-3.06-1.939-4.525
		h-0.074c0.1,1.79,0.174,3.58,0.248,5.346c0.05,1.766,0.075,3.605,0.075,5.495v25.213c0,0.224-0.075,0.447-0.224,0.671
		c-0.125,0.175-0.374,0.349-0.696,0.499c-0.323,0.123-0.796,0.223-1.367,0.297c-0.572,0.074-1.294,0.124-2.189,0.124
		c-0.87,0-1.615-0.05-2.188-0.124c-0.572-0.074-0.994-0.174-1.317-0.297c-0.324-0.15-0.572-0.324-0.672-0.499
		c-0.124-0.224-0.198-0.447-0.198-0.671v-43.29c0-1.168,0.348-2.038,1.02-2.636c0.695-0.571,1.516-0.87,2.535-0.87h5.247
		c0.92,0,1.74,0.075,2.387,0.249c0.646,0.149,1.219,0.423,1.716,0.795c0.497,0.374,0.995,0.896,1.442,1.542
		c0.447,0.647,0.895,1.468,1.367,2.438l9.35,17.63c0.547,1.068,1.094,2.112,1.615,3.132c0.548,1.044,1.069,2.064,1.542,3.083
		c0.497,1.045,0.97,2.064,1.442,3.034c0.497,1.02,0.945,2.014,1.393,3.008h0.024c-0.075-1.74-0.124-3.58-0.174-5.445
		c-0.024-1.89-0.05-3.706-0.05-5.421v-22.602c0-0.248,0.075-0.473,0.224-0.672c0.149-0.198,0.397-0.372,0.745-0.521
		c0.349-0.149,0.822-0.249,1.394-0.323c0.572-0.05,1.293-0.075,2.189-0.075c0.846,0,1.565,0.025,2.138,0.075
		c0.572,0.074,0.995,0.174,1.317,0.323c0.3,0.149,0.548,0.323,0.647,0.521c0.124,0.199,0.198,0.424,0.198,0.672V594.804z
		 M508.845,594.58c0.299,0.895,0.498,1.615,0.572,2.113c0.075,0.521-0.024,0.92-0.298,1.193c-0.274,0.248-0.771,0.422-1.468,0.472
		c-0.671,0.075-1.641,0.1-2.859,0.1c-1.268,0-2.262-0.024-2.958-0.05c-0.697-0.05-1.243-0.124-1.617-0.224
		c-0.372-0.124-0.621-0.273-0.771-0.472c-0.149-0.199-0.273-0.473-0.373-0.771l-3.157-9.697h-18.177l-3.033,9.426
		c-0.1,0.347-0.225,0.645-0.373,0.868c-0.174,0.249-0.423,0.423-0.796,0.572c-0.348,0.124-0.845,0.224-1.517,0.273
		c-0.646,0.05-1.517,0.074-2.586,0.074c-1.143,0-2.039-0.05-2.686-0.124c-0.647-0.074-1.094-0.248-1.317-0.521
		c-0.274-0.299-0.349-0.696-0.274-1.221c0.076-0.521,0.274-1.217,0.548-2.087l14.844-42.742c0.126-0.423,0.323-0.747,0.523-1.019
		c0.174-0.249,0.496-0.447,0.944-0.597c0.422-0.125,1.02-0.225,1.815-0.249c0.745-0.05,1.765-0.05,3.032-0.05
		c1.468,0,2.637,0,3.507,0.05c0.87,0.024,1.541,0.124,2.014,0.249c0.497,0.149,0.846,0.348,1.045,0.621
		c0.198,0.273,0.397,0.647,0.546,1.119L508.845,594.58z M486.766,559.222h-0.05l-6.714,20.488h13.526L486.766,559.222z
		 M573.021,596.893c0,0.248-0.074,0.472-0.199,0.67c-0.149,0.201-0.397,0.349-0.745,0.498c-0.374,0.1-0.846,0.199-1.442,0.273
		c-0.598,0.074-1.367,0.124-2.287,0.124c-0.896,0-1.642-0.05-2.238-0.124c-0.597-0.074-1.069-0.174-1.417-0.273
		c-0.349-0.149-0.598-0.297-0.746-0.498c-0.149-0.198-0.224-0.422-0.224-0.67v-39.212h-0.076l-13.898,39.186
		c-0.1,0.298-0.273,0.571-0.497,0.796c-0.224,0.198-0.522,0.374-0.921,0.497c-0.371,0.124-0.87,0.198-1.442,0.248
		c-0.596,0.025-1.317,0.05-2.162,0.05c-0.846,0-1.567-0.024-2.163-0.1c-0.598-0.05-1.094-0.148-1.468-0.298
		c-0.397-0.149-0.696-0.297-0.92-0.498c-0.224-0.198-0.373-0.446-0.447-0.695l-13.429-39.186h-0.073v39.212
		c0,0.248-0.05,0.472-0.198,0.67c-0.149,0.201-0.397,0.349-0.771,0.498c-0.372,0.1-0.846,0.199-1.441,0.273
		c-0.572,0.074-1.344,0.124-2.238,0.124c-0.92,0-1.666-0.05-2.263-0.124c-0.597-0.074-1.069-0.174-1.417-0.273
		c-0.373-0.149-0.621-0.297-0.771-0.498c-0.123-0.198-0.199-0.422-0.199-0.67v-42.918c0-1.268,0.35-2.237,1.02-2.91
		c0.672-0.669,1.542-0.993,2.686-0.993h6.391c1.143,0,2.138,0.075,2.959,0.274c0.82,0.198,1.542,0.496,2.139,0.92
		c0.571,0.447,1.094,1.02,1.467,1.715c0.398,0.721,0.771,1.592,1.044,2.635l10.393,28.695h0.15l10.741-28.62
		c0.324-1.044,0.672-1.914,1.045-2.659c0.397-0.697,0.844-1.294,1.343-1.741c0.521-0.423,1.118-0.746,1.815-0.944
		c0.695-0.199,1.516-0.274,2.412-0.274h6.613c0.672,0,1.243,0.075,1.74,0.274c0.473,0.148,0.87,0.398,1.194,0.745
		c0.298,0.349,0.521,0.746,0.695,1.219c0.175,0.497,0.249,1.044,0.249,1.665V596.893z M613.377,594.381
		c0,0.721-0.025,1.317-0.1,1.814c-0.05,0.475-0.148,0.871-0.273,1.169c-0.125,0.299-0.273,0.522-0.473,0.673
		c-0.174,0.123-0.398,0.197-0.622,0.197h-24.144c-0.819,0-1.491-0.248-2.063-0.721c-0.547-0.497-0.846-1.269-0.846-2.362v-41.997
		c0-1.094,0.299-1.889,0.846-2.361c0.572-0.473,1.244-0.722,2.063-0.722h24.045c0.199,0,0.423,0.05,0.597,0.199
		c0.149,0.125,0.323,0.323,0.447,0.646c0.101,0.299,0.199,0.696,0.274,1.194c0.049,0.496,0.099,1.094,0.099,1.84
		c0,0.695-0.05,1.293-0.099,1.789c-0.075,0.473-0.15,0.871-0.274,1.17c-0.124,0.298-0.298,0.521-0.447,0.646
		c-0.174,0.149-0.397,0.199-0.597,0.199h-17.182v11.736H609.1c0.225,0,0.424,0.074,0.622,0.224c0.174,0.125,0.323,0.323,0.448,0.621
		c0.148,0.273,0.224,0.672,0.298,1.169c0.05,0.473,0.074,1.044,0.074,1.74c0,0.722-0.024,1.318-0.074,1.79
		c-0.074,0.474-0.149,0.846-0.298,1.144c-0.125,0.273-0.274,0.473-0.448,0.597c-0.198,0.124-0.398,0.198-0.622,0.198h-14.471v13.552
		h17.28c0.249,0,0.448,0.075,0.622,0.199c0.199,0.148,0.348,0.373,0.473,0.671c0.125,0.299,0.224,0.697,0.273,1.169
		C613.352,593.063,613.377,593.659,613.377,594.381L613.377,594.381z M217.206,638.565v11.091c0,0.124-0.025,0.224-0.1,0.323
		c-0.049,0.1-0.174,0.174-0.323,0.224c-0.149,0.05-0.348,0.101-0.622,0.148c-0.249,0.025-0.571,0.05-0.945,0.05
		c-0.398,0-0.695-0.024-0.97-0.05c-0.249-0.048-0.447-0.099-0.621-0.148c-0.15-0.05-0.274-0.124-0.324-0.224
		c-0.074-0.1-0.099-0.199-0.099-0.323v-11.091l-8.504-17.007c-0.174-0.348-0.273-0.621-0.323-0.82c-0.05-0.2,0-0.349,0.124-0.474
		c0.1-0.098,0.323-0.173,0.621-0.197c0.299-0.05,0.697-0.05,1.219-0.05c0.472,0,0.845,0,1.144,0.05
		c0.273,0.024,0.497,0.074,0.671,0.124c0.174,0.05,0.298,0.124,0.397,0.224c0.074,0.1,0.149,0.224,0.224,0.398l4.178,8.652
		c0.372,0.82,0.771,1.666,1.144,2.562c0.398,0.92,0.796,1.815,1.193,2.735h0.05c0.349-0.871,0.721-1.766,1.095-2.636
		c0.373-0.871,0.745-1.741,1.144-2.587l4.177-8.702c0.05-0.175,0.125-0.3,0.2-0.397c0.099-0.125,0.199-0.199,0.348-0.249
		c0.149-0.05,0.373-0.1,0.622-0.124c0.273-0.05,0.596-0.05,0.994-0.05c0.572,0,0.995,0,1.318,0.05
		c0.323,0.05,0.547,0.124,0.671,0.224c0.124,0.099,0.149,0.273,0.124,0.472c-0.049,0.199-0.149,0.473-0.323,0.796L217.206,638.565z
		 M255.325,634.861c0,2.436-0.274,4.624-0.846,6.563c-0.597,1.964-1.442,3.631-2.586,4.998c-1.144,1.368-2.562,2.412-4.277,3.157
		c-1.741,0.746-3.729,1.094-6.042,1.094c-2.263,0-4.203-0.323-5.869-0.993c-1.641-0.672-3.009-1.667-4.078-2.96
		c-1.094-1.268-1.89-2.885-2.412-4.774c-0.522-1.914-0.795-4.102-0.795-6.563c0-2.387,0.298-4.551,0.845-6.49
		c0.597-1.939,1.443-3.58,2.611-4.923c1.145-1.343,2.561-2.412,4.302-3.133c1.716-0.746,3.705-1.12,6.017-1.12
		c2.214,0,4.153,0.35,5.794,1.021c1.641,0.646,3.008,1.616,4.103,2.909c1.094,1.268,1.914,2.859,2.437,4.749
		C255.05,630.261,255.325,632.424,255.325,634.861L255.325,634.861z M251.097,635.134c0-1.69-0.149-3.282-0.449-4.749
		c-0.322-1.467-0.819-2.735-1.516-3.804c-0.721-1.069-1.641-1.915-2.81-2.512c-1.193-0.622-2.636-0.92-4.376-0.92
		c-1.741,0-3.182,0.322-4.376,0.97c-1.169,0.671-2.113,1.516-2.859,2.609c-0.745,1.096-1.268,2.338-1.566,3.806
		c-0.324,1.442-0.498,2.959-0.498,4.55c0,1.766,0.174,3.383,0.448,4.874c0.298,1.492,0.795,2.76,1.492,3.854
		c0.696,1.069,1.616,1.89,2.785,2.487c1.168,0.597,2.636,0.92,4.401,0.92c1.766,0,3.232-0.349,4.427-0.995
		c1.193-0.647,2.138-1.517,2.884-2.636c0.722-1.094,1.243-2.387,1.541-3.829C250.948,638.291,251.097,636.75,251.097,635.134
		L251.097,635.134z M285.137,639.137c0,1.815-0.274,3.457-0.821,4.874c-0.523,1.442-1.294,2.659-2.288,3.655
		c-0.995,0.996-2.188,1.74-3.63,2.238c-1.417,0.521-3.033,0.77-4.849,0.77c-1.666,0-3.157-0.224-4.525-0.721
		c-1.367-0.473-2.536-1.193-3.505-2.113c-0.996-0.944-1.741-2.113-2.263-3.53c-0.547-1.418-0.796-3.033-0.796-4.874v-18.674
		c0-0.124,0.024-0.248,0.1-0.322c0.05-0.1,0.149-0.176,0.324-0.225c0.149-0.049,0.348-0.099,0.596-0.148
		c0.249-0.05,0.572-0.05,0.995-0.05c0.374,0,0.697,0,0.945,0.05c0.274,0.05,0.473,0.1,0.622,0.148
		c0.149,0.049,0.248,0.125,0.323,0.225c0.075,0.074,0.1,0.198,0.1,0.322v18.177c0,1.393,0.174,2.61,0.497,3.63
		c0.348,1.045,0.845,1.914,1.492,2.611c0.621,0.696,1.392,1.193,2.312,1.541c0.895,0.349,1.915,0.523,3.033,0.523
		c1.17,0,2.189-0.149,3.108-0.498c0.895-0.349,1.666-0.845,2.288-1.54c0.622-0.672,1.094-1.518,1.442-2.537
		c0.323-0.994,0.497-2.188,0.497-3.531v-18.375c0-0.124,0.025-0.248,0.1-0.322c0.05-0.1,0.15-0.176,0.324-0.225
		c0.149-0.049,0.348-0.099,0.621-0.148c0.249-0.05,0.572-0.05,0.97-0.05c0.373,0,0.671,0,0.945,0.05
		c0.249,0.05,0.448,0.1,0.597,0.148c0.149,0.049,0.273,0.125,0.349,0.225c0.049,0.074,0.099,0.198,0.099,0.322V639.137z
		 M313.98,649.655c0,0.124-0.025,0.224-0.075,0.323s-0.15,0.174-0.299,0.224c-0.149,0.074-0.372,0.124-0.646,0.148
		c-0.299,0.025-0.671,0.05-1.12,0.05c-0.397,0-0.745-0.024-0.994-0.05c-0.248-0.024-0.447-0.074-0.621-0.148
		c-0.149-0.075-0.274-0.173-0.349-0.298c-0.099-0.125-0.174-0.273-0.224-0.448l-2.76-7.111c-0.323-0.82-0.671-1.542-1.02-2.237
		c-0.348-0.672-0.771-1.244-1.243-1.741c-0.473-0.497-1.045-0.87-1.716-1.143c-0.646-0.273-1.417-0.397-2.337-0.397h-2.686v12.829
		c0,0.124-0.025,0.224-0.099,0.323c-0.075,0.1-0.174,0.174-0.323,0.224c-0.149,0.05-0.348,0.101-0.597,0.148
		c-0.273,0.025-0.571,0.05-0.97,0.05c-0.397,0-0.696-0.024-0.97-0.05c-0.249-0.048-0.472-0.099-0.621-0.148
		c-0.15-0.05-0.249-0.124-0.323-0.224c-0.05-0.1-0.1-0.199-0.1-0.323v-27.873c0-0.598,0.174-1.021,0.498-1.269
		c0.298-0.25,0.645-0.348,0.994-0.348h6.416c0.745,0,1.392,0,1.89,0.049c0.497,0.025,0.945,0.075,1.367,0.125
		c1.169,0.197,2.188,0.523,3.083,0.944c0.895,0.448,1.641,0.995,2.238,1.666c0.597,0.648,1.069,1.417,1.367,2.287
		c0.299,0.847,0.448,1.815,0.448,2.835c0,1.019-0.124,1.914-0.398,2.71s-0.671,1.518-1.193,2.114
		c-0.497,0.621-1.119,1.143-1.84,1.591c-0.697,0.448-1.492,0.846-2.387,1.144c0.498,0.225,0.946,0.498,1.343,0.82
		c0.422,0.349,0.796,0.746,1.143,1.195c0.349,0.471,0.671,1.018,0.97,1.615c0.324,0.621,0.622,1.293,0.945,2.064l2.686,6.639
		c0.224,0.546,0.373,0.944,0.423,1.168C313.956,649.356,313.98,649.53,313.98,649.655L313.98,649.655z M307.963,628.495
		c0-1.168-0.273-2.189-0.796-3.008c-0.522-0.796-1.417-1.393-2.66-1.741c-0.398-0.123-0.82-0.175-1.318-0.225
		c-0.497-0.05-1.119-0.074-1.914-0.074h-3.382v10.144h3.905c1.069,0,1.989-0.125,2.76-0.398c0.745-0.247,1.392-0.62,1.89-1.067
		c0.522-0.448,0.896-0.995,1.143-1.617C307.838,629.888,307.963,629.217,307.963,628.495L307.963,628.495z"/>
	<path style="fill:#333333;" d="M347.548,641.798c0,1.418-0.248,2.66-0.771,3.778c-0.522,1.094-1.243,2.015-2.163,2.786
		c-0.921,0.771-2.015,1.343-3.258,1.74c-1.268,0.398-2.611,0.571-4.053,0.571c-0.994,0-1.939-0.073-2.785-0.248
		c-0.87-0.174-1.641-0.396-2.313-0.621c-0.67-0.25-1.243-0.522-1.691-0.771c-0.472-0.273-0.795-0.497-0.97-0.696
		c-0.174-0.174-0.298-0.422-0.397-0.696c-0.074-0.298-0.124-0.671-0.124-1.144c0-0.348,0.025-0.621,0.05-0.846
		c0.025-0.224,0.074-0.422,0.124-0.546c0.075-0.149,0.149-0.25,0.249-0.3c0.099-0.05,0.2-0.074,0.324-0.074
		c0.224,0,0.521,0.124,0.92,0.398c0.397,0.248,0.895,0.547,1.516,0.846c0.621,0.298,1.368,0.597,2.263,0.87
		c0.871,0.273,1.89,0.398,3.033,0.398c0.871,0,1.666-0.1,2.388-0.348c0.721-0.226,1.342-0.548,1.865-0.97
		c0.521-0.423,0.92-0.945,1.193-1.566c0.273-0.622,0.422-1.318,0.422-2.113c0-0.846-0.199-1.592-0.596-2.19
		c-0.374-0.596-0.896-1.118-1.517-1.59c-0.646-0.449-1.367-0.871-2.188-1.244c-0.821-0.397-1.641-0.772-2.487-1.169
		c-0.845-0.397-1.691-0.845-2.487-1.317c-0.82-0.473-1.542-1.045-2.163-1.69c-0.647-0.648-1.168-1.418-1.542-2.288
		c-0.397-0.87-0.596-1.939-0.596-3.157c0-1.243,0.224-2.363,0.67-3.357c0.473-0.97,1.095-1.79,1.915-2.461
		c0.82-0.672,1.79-1.194,2.91-1.542c1.119-0.348,2.337-0.523,3.63-0.523c0.671,0,1.342,0.075,2.014,0.176
		c0.671,0.124,1.293,0.273,1.89,0.472c0.597,0.199,1.144,0.423,1.591,0.646c0.474,0.249,0.771,0.447,0.92,0.597
		c0.15,0.149,0.249,0.249,0.299,0.349c0.049,0.074,0.075,0.198,0.099,0.323c0.05,0.124,0.075,0.298,0.075,0.473
		c0.025,0.198,0.025,0.422,0.025,0.72c0,0.274,0,0.522-0.025,0.746c-0.025,0.224-0.075,0.398-0.099,0.548
		c-0.05,0.149-0.125,0.273-0.199,0.322c-0.099,0.075-0.175,0.125-0.299,0.125c-0.174,0-0.447-0.125-0.796-0.323
		c-0.373-0.224-0.82-0.473-1.343-0.746c-0.522-0.273-1.143-0.521-1.864-0.746c-0.721-0.224-1.542-0.348-2.437-0.348
		c-0.845,0-1.566,0.124-2.188,0.348c-0.622,0.225-1.144,0.522-1.542,0.896c-0.397,0.373-0.695,0.795-0.895,1.318
		c-0.199,0.521-0.298,1.044-0.298,1.615c0,0.846,0.174,1.566,0.572,2.164c0.398,0.596,0.896,1.144,1.542,1.615
		c0.646,0.449,1.393,0.87,2.213,1.269c0.821,0.396,1.666,0.771,2.511,1.168c0.845,0.398,1.691,0.82,2.512,1.318
		c0.82,0.447,1.566,1.02,2.213,1.665c0.646,0.646,1.143,1.392,1.541,2.288C347.349,639.585,347.548,640.604,347.548,641.798
		L347.548,641.798z M369.702,648.511c0,0.299-0.024,0.572-0.049,0.772c-0.025,0.198-0.075,0.398-0.15,0.547
		c-0.074,0.149-0.149,0.249-0.249,0.323c-0.099,0.074-0.224,0.1-0.373,0.1h-13.303c-0.372,0-0.696-0.125-1.02-0.348
		c-0.323-0.249-0.472-0.672-0.472-1.269v-27.873c0-0.124,0.025-0.248,0.1-0.322c0.05-0.1,0.149-0.176,0.323-0.225
		c0.149-0.049,0.349-0.099,0.623-0.148c0.248-0.05,0.572-0.05,0.944-0.05c0.397,0,0.721,0,0.97,0.05s0.473,0.1,0.622,0.148
		c0.149,0.049,0.248,0.125,0.323,0.225c0.05,0.074,0.099,0.198,0.099,0.322v26.009h10.792c0.149,0,0.273,0.051,0.373,0.1
		c0.099,0.075,0.174,0.175,0.249,0.323c0.075,0.124,0.125,0.297,0.15,0.521C369.678,647.94,369.702,648.188,369.702,648.511
		L369.702,648.511z M399.092,634.861c0,2.436-0.297,4.624-0.87,6.563c-0.571,1.964-1.417,3.631-2.561,4.998
		c-1.144,1.368-2.586,2.412-4.302,3.157c-1.716,0.746-3.73,1.094-6.017,1.094c-2.263,0-4.227-0.323-5.869-0.993
		c-1.666-0.672-3.008-1.667-4.102-2.96c-1.069-1.268-1.865-2.885-2.388-4.774c-0.546-1.914-0.795-4.102-0.795-6.563
		c0-2.387,0.274-4.551,0.845-6.49c0.572-1.939,1.442-3.58,2.586-4.923c1.144-1.343,2.586-2.412,4.302-3.133
		c1.716-0.746,3.729-1.12,6.017-1.12c2.238,0,4.153,0.35,5.793,1.021c1.641,0.646,3.009,1.616,4.103,2.909
		c1.094,1.268,1.914,2.859,2.461,4.749C398.819,630.261,399.092,632.424,399.092,634.861L399.092,634.861z M394.841,635.134
		c0-1.69-0.149-3.282-0.448-4.749c-0.298-1.467-0.796-2.735-1.516-3.804c-0.696-1.069-1.641-1.915-2.81-2.512
		c-1.169-0.622-2.636-0.92-4.352-0.92c-1.74,0-3.208,0.322-4.376,0.97c-1.168,0.671-2.138,1.516-2.859,2.609
		c-0.747,1.096-1.268,2.338-1.592,3.806c-0.323,1.442-0.472,2.959-0.472,4.55c0,1.766,0.149,3.383,0.447,4.874
		c0.299,1.492,0.796,2.76,1.492,3.854c0.671,1.069,1.617,1.89,2.785,2.487c1.169,0.597,2.636,0.92,4.401,0.92
		c1.741,0,3.208-0.349,4.4-0.995c1.194-0.647,2.164-1.517,2.886-2.636c0.72-1.094,1.243-2.387,1.565-3.829
		C394.691,638.291,394.841,636.75,394.841,635.134L394.841,635.134z M428.83,624.268c0,0.299,0,0.547-0.05,0.772
		c-0.024,0.225-0.074,0.423-0.124,0.572c-0.074,0.148-0.15,0.248-0.247,0.297c-0.076,0.075-0.175,0.101-0.3,0.101
		c-0.174,0-0.497-0.149-0.92-0.447c-0.447-0.298-1.02-0.622-1.74-0.97c-0.746-0.374-1.616-0.695-2.636-0.994
		c-1.02-0.3-2.214-0.448-3.605-0.448c-1.666,0-3.157,0.298-4.476,0.92c-1.317,0.597-2.436,1.442-3.332,2.512
		c-0.92,1.068-1.616,2.337-2.114,3.804c-0.496,1.491-0.746,3.082-0.746,4.799c0,1.939,0.274,3.631,0.821,5.123
		c0.522,1.491,1.269,2.759,2.213,3.779c0.945,1.02,2.089,1.815,3.406,2.337c1.294,0.522,2.735,0.796,4.302,0.796
		c0.945,0,1.89-0.125,2.835-0.349c0.97-0.224,1.84-0.571,2.66-1.021v-8.776h-6.962c-0.273,0-0.473-0.149-0.597-0.397
		c-0.124-0.273-0.198-0.696-0.198-1.243c0-0.299,0.024-0.547,0.049-0.772c0.025-0.198,0.075-0.372,0.15-0.497
		c0.074-0.124,0.149-0.224,0.248-0.298c0.1-0.05,0.2-0.101,0.349-0.101h9.548c0.174,0,0.349,0.051,0.522,0.101
		c0.175,0.074,0.323,0.149,0.473,0.273c0.124,0.124,0.248,0.298,0.324,0.521c0.073,0.225,0.098,0.473,0.098,0.746v11.488
		c0,0.398-0.05,0.745-0.198,1.044c-0.149,0.298-0.423,0.547-0.896,0.771c-0.447,0.225-1.02,0.472-1.74,0.745
		c-0.723,0.249-1.442,0.473-2.213,0.671c-0.746,0.176-1.518,0.323-2.288,0.424c-0.771,0.074-1.541,0.123-2.311,0.123
		c-2.338,0-4.401-0.348-6.242-1.068c-1.815-0.721-3.381-1.766-4.624-3.084c-1.269-1.342-2.238-2.934-2.909-4.799
		c-0.672-1.864-0.995-3.928-0.995-6.241c0-2.386,0.348-4.55,1.069-6.489c0.722-1.94,1.74-3.581,3.059-4.973
		c1.293-1.367,2.885-2.412,4.699-3.157c1.84-0.771,3.879-1.146,6.117-1.146c1.144,0,2.212,0.101,3.232,0.3
		c0.994,0.224,1.89,0.447,2.684,0.721c0.772,0.273,1.443,0.572,1.991,0.894c0.522,0.325,0.895,0.599,1.094,0.797
		c0.198,0.199,0.348,0.424,0.422,0.696C428.806,623.373,428.83,623.771,428.83,624.268L428.83,624.268z M459.688,648.835
		c0.099,0.348,0.174,0.621,0.198,0.82c0,0.224-0.074,0.374-0.174,0.497c-0.149,0.1-0.349,0.174-0.622,0.198
		c-0.298,0.025-0.671,0.05-1.168,0.05c-0.473,0-0.846,0-1.145-0.024c-0.273-0.025-0.497-0.073-0.647-0.124
		c-0.148-0.05-0.249-0.125-0.323-0.223c-0.074-0.101-0.149-0.2-0.199-0.349l-2.586-7.336h-12.507l-2.462,7.235
		c-0.049,0.149-0.099,0.249-0.198,0.373c-0.074,0.1-0.174,0.174-0.323,0.249c-0.148,0.074-0.373,0.124-0.647,0.148
		c-0.248,0.025-0.622,0.05-1.044,0.05c-0.448,0-0.821-0.024-1.094-0.05c-0.3-0.048-0.498-0.124-0.622-0.224
		c-0.1-0.124-0.174-0.273-0.15-0.472c0-0.225,0.05-0.497,0.199-0.846l10.07-27.947c0.074-0.175,0.148-0.325,0.248-0.423
		c0.1-0.125,0.248-0.199,0.448-0.249c0.198-0.074,0.447-0.124,0.745-0.149c0.299-0.024,0.696-0.024,1.145-0.024
		c0.497,0,0.92,0,1.242,0.024c0.323,0.025,0.573,0.075,0.771,0.149c0.224,0.05,0.373,0.149,0.472,0.249
		c0.124,0.124,0.2,0.273,0.274,0.423L459.688,648.835z M446.733,624.144h-0.025l-5.196,15.018h10.468L446.733,624.144z
		 M488.307,648.586c0,0.299-0.05,0.572-0.174,0.795c-0.1,0.199-0.224,0.398-0.397,0.523c-0.174,0.148-0.349,0.248-0.572,0.298
		c-0.198,0.074-0.397,0.101-0.622,0.101h-1.317c-0.422,0-0.771-0.051-1.094-0.126c-0.323-0.099-0.597-0.248-0.896-0.472
		c-0.272-0.225-0.572-0.522-0.845-0.896c-0.273-0.373-0.572-0.87-0.895-1.492l-9.176-17.107c-0.497-0.894-0.97-1.815-1.467-2.785
		c-0.498-0.969-0.945-1.914-1.368-2.834h-0.05c0.05,1.119,0.074,2.262,0.074,3.431c0.025,1.169,0.025,2.313,0.025,3.456v18.177
		c0,0.101-0.025,0.198-0.1,0.323c-0.074,0.074-0.174,0.174-0.322,0.224c-0.149,0.05-0.35,0.101-0.622,0.148
		c-0.249,0.025-0.572,0.05-0.97,0.05c-0.397,0-0.722-0.024-0.97-0.05c-0.249-0.048-0.448-0.099-0.598-0.148
		c-0.148-0.05-0.248-0.149-0.322-0.224c-0.05-0.125-0.1-0.223-0.1-0.323v-27.774c0-0.621,0.174-1.068,0.546-1.317
		c0.349-0.273,0.722-0.397,1.145-0.397h1.965c0.473,0,0.845,0.024,1.168,0.098c0.298,0.076,0.598,0.225,0.846,0.398
		c0.224,0.175,0.472,0.424,0.722,0.746c0.223,0.299,0.472,0.697,0.721,1.193l7.062,13.204c0.447,0.82,0.87,1.591,1.268,2.361
		c0.398,0.771,0.797,1.542,1.169,2.288c0.373,0.721,0.746,1.467,1.119,2.189c0.372,0.721,0.721,1.442,1.094,2.162h0.024
		c-0.049-1.218-0.049-2.485-0.074-3.804c0-1.344,0-2.611,0-3.829v-16.311c0-0.125,0.025-0.225,0.1-0.299
		c0.074-0.1,0.174-0.175,0.323-0.249c0.174-0.074,0.373-0.124,0.621-0.148c0.249-0.05,0.572-0.05,0.995-0.05
		c0.349,0,0.671,0,0.92,0.05c0.274,0.024,0.473,0.074,0.622,0.148c0.148,0.074,0.248,0.149,0.322,0.249
		c0.075,0.074,0.1,0.174,0.1,0.299V648.586z M529.558,649.655c0,0.124-0.05,0.224-0.099,0.323c-0.076,0.1-0.175,0.174-0.324,0.224
		c-0.174,0.05-0.373,0.101-0.621,0.148c-0.274,0.025-0.572,0.05-0.945,0.05c-0.423,0-0.746-0.024-0.994-0.05
		c-0.249-0.048-0.448-0.099-0.597-0.148c-0.174-0.05-0.273-0.124-0.323-0.224c-0.074-0.1-0.101-0.199-0.101-0.323v-13.353h-13.675
		v13.353c0,0.124-0.024,0.224-0.1,0.323c-0.049,0.1-0.174,0.174-0.323,0.224c-0.15,0.05-0.348,0.101-0.621,0.148
		c-0.249,0.025-0.572,0.05-0.945,0.05c-0.373,0-0.696-0.024-0.97-0.05c-0.249-0.048-0.472-0.099-0.621-0.148
		c-0.149-0.05-0.273-0.124-0.323-0.224c-0.074-0.1-0.101-0.199-0.101-0.323v-28.894c0-0.124,0.026-0.248,0.101-0.322
		c0.05-0.1,0.174-0.176,0.323-0.225c0.149-0.049,0.372-0.099,0.621-0.148c0.273-0.05,0.597-0.05,0.97-0.05
		c0.373,0,0.696,0,0.945,0.05c0.273,0.05,0.472,0.1,0.621,0.148c0.149,0.049,0.274,0.125,0.323,0.225
		c0.075,0.098,0.1,0.198,0.1,0.322v12.061h13.675v-12.061c0-0.124,0.026-0.225,0.101-0.322c0.05-0.1,0.149-0.176,0.323-0.225
		c0.148-0.049,0.348-0.099,0.597-0.148c0.248-0.05,0.571-0.05,0.994-0.05c0.373,0,0.671,0,0.945,0.05
		c0.248,0.05,0.447,0.1,0.621,0.148c0.149,0.049,0.248,0.125,0.324,0.225c0.049,0.074,0.099,0.198,0.099,0.322V649.655z
		 M555.144,648.586c0,0.299,0,0.547-0.05,0.746c-0.025,0.198-0.074,0.373-0.15,0.522c-0.074,0.149-0.174,0.249-0.273,0.299
		c-0.099,0.074-0.224,0.1-0.349,0.1h-14.445c-0.348,0-0.696-0.125-1.02-0.348c-0.324-0.249-0.473-0.672-0.473-1.269v-26.853
		c0-0.598,0.148-1.021,0.473-1.269c0.323-0.25,0.672-0.348,1.02-0.348h14.297c0.124,0,0.225,0.024,0.323,0.074
		c0.1,0.074,0.2,0.174,0.249,0.323c0.049,0.124,0.124,0.299,0.148,0.522c0.05,0.198,0.05,0.447,0.05,0.771
		c0,0.273,0,0.522-0.05,0.745c-0.024,0.201-0.1,0.374-0.148,0.498c-0.049,0.124-0.149,0.224-0.249,0.298
		c-0.099,0.05-0.199,0.1-0.323,0.1h-11.785v9.425h10.119c0.125,0,0.225,0.024,0.323,0.099c0.1,0.075,0.199,0.173,0.249,0.299
		c0.074,0.124,0.124,0.298,0.174,0.497c0.024,0.224,0.024,0.473,0.024,0.771c0,0.299,0,0.522-0.024,0.721
		c-0.05,0.224-0.1,0.374-0.174,0.498c-0.05,0.124-0.149,0.224-0.249,0.273c-0.099,0.05-0.198,0.074-0.323,0.074h-10.119v10.767
		h11.934c0.125,0,0.25,0.025,0.349,0.1c0.1,0.05,0.199,0.149,0.273,0.274c0.075,0.148,0.124,0.323,0.15,0.522
		C555.144,648.014,555.144,648.287,555.144,648.586L555.144,648.586z M582.545,649.655c0,0.124-0.025,0.224-0.074,0.323
		c-0.05,0.1-0.125,0.174-0.3,0.224c-0.149,0.074-0.372,0.124-0.646,0.148c-0.274,0.025-0.646,0.05-1.119,0.05
		c-0.398,0-0.721-0.024-0.995-0.05c-0.248-0.024-0.447-0.074-0.596-0.148c-0.175-0.075-0.273-0.173-0.374-0.298
		c-0.074-0.125-0.148-0.273-0.224-0.448l-2.759-7.111c-0.324-0.82-0.673-1.542-1.021-2.237c-0.347-0.672-0.746-1.244-1.243-1.741
		c-0.473-0.497-1.044-0.87-1.69-1.143c-0.648-0.273-1.442-0.397-2.362-0.397h-2.66v12.829c0,0.124-0.051,0.224-0.101,0.323
		c-0.074,0.1-0.198,0.174-0.322,0.224c-0.175,0.05-0.373,0.101-0.622,0.148c-0.249,0.025-0.571,0.05-0.97,0.05
		c-0.373,0-0.695-0.024-0.97-0.05c-0.249-0.048-0.447-0.099-0.598-0.148c-0.173-0.05-0.273-0.124-0.322-0.224
		c-0.075-0.1-0.1-0.199-0.1-0.323v-27.873c0-0.598,0.148-1.021,0.473-1.269c0.323-0.25,0.672-0.348,1.02-0.348h6.391
		c0.771,0,1.392,0,1.89,0.049c0.521,0.025,0.97,0.075,1.367,0.125c1.168,0.197,2.188,0.523,3.084,0.944
		c0.895,0.448,1.64,0.995,2.237,1.666c0.621,0.648,1.068,1.417,1.367,2.287c0.299,0.847,0.447,1.815,0.447,2.835
		c0,1.019-0.124,1.914-0.398,2.71c-0.273,0.796-0.671,1.518-1.169,2.114c-0.521,0.621-1.118,1.143-1.84,1.591
		c-0.722,0.448-1.518,0.846-2.411,1.144c0.497,0.225,0.944,0.498,1.367,0.82c0.398,0.349,0.77,0.746,1.118,1.195
		c0.349,0.471,0.672,1.018,0.995,1.615c0.299,0.621,0.622,1.293,0.92,2.064l2.71,6.639c0.2,0.546,0.349,0.944,0.398,1.168
		C582.519,649.356,582.545,649.53,582.545,649.655L582.545,649.655z M576.527,628.495c0-1.168-0.273-2.189-0.795-3.008
		c-0.522-0.796-1.418-1.393-2.661-1.741c-0.373-0.123-0.82-0.175-1.293-0.225c-0.497-0.05-1.143-0.074-1.939-0.074h-3.357v10.144
		h3.903c1.044,0,1.965-0.125,2.735-0.398c0.771-0.247,1.392-0.62,1.914-1.067c0.521-0.448,0.896-0.995,1.145-1.617
		C576.402,629.888,576.527,629.217,576.527,628.495L576.527,628.495z M605.942,648.586c0,0.299-0.024,0.547-0.05,0.746
		c-0.023,0.198-0.1,0.373-0.174,0.522c-0.074,0.149-0.15,0.249-0.248,0.299c-0.125,0.074-0.225,0.1-0.349,0.1h-14.446
		c-0.373,0-0.722-0.125-1.021-0.348c-0.322-0.249-0.497-0.672-0.497-1.269v-26.853c0-0.598,0.175-1.021,0.497-1.269
		c0.299-0.25,0.647-0.348,1.021-0.348h14.272c0.124,0,0.248,0.024,0.348,0.074c0.099,0.074,0.175,0.174,0.249,0.323
		c0.051,0.124,0.1,0.299,0.148,0.522c0.025,0.198,0.05,0.447,0.05,0.771c0,0.273-0.024,0.522-0.05,0.745
		c-0.049,0.201-0.098,0.374-0.148,0.498c-0.074,0.124-0.15,0.224-0.249,0.298c-0.1,0.05-0.224,0.1-0.348,0.1h-11.786v9.425h10.119
		c0.125,0,0.249,0.024,0.349,0.099c0.1,0.075,0.175,0.173,0.249,0.299c0.074,0.124,0.124,0.298,0.148,0.497
		c0.025,0.224,0.05,0.473,0.05,0.771c0,0.299-0.024,0.522-0.05,0.721c-0.024,0.224-0.074,0.374-0.148,0.498
		c-0.074,0.124-0.149,0.224-0.249,0.273s-0.224,0.074-0.349,0.074h-10.119v10.767h11.96c0.124,0,0.224,0.025,0.349,0.1
		c0.099,0.05,0.174,0.149,0.248,0.274c0.074,0.148,0.15,0.323,0.174,0.522C605.918,648.014,605.942,648.287,605.942,648.586
		L605.942,648.586z"/>
</g>
<g id="Layer_1">
</g>
</svg>
